<svg width="145" height="96" viewBox="0 0 145 96" fill="none" xmlns="http://www.w3.org/2000/svg">
<path id="Vector" d="M3 93.1532C11.0451 82.7419 14.0096 68.0494 21.0534 56.7946C41.3531 24.3591 28.888 82.9427 34.5724 90.4662C40.2022 97.9174 65.9559 39.9891 68.6639 35.2145C69.4943 33.7503 70.6122 30.745 72.1066 31.5199C73.9246 32.4625 73.1726 35.518 73.1982 37.5657C73.2571 42.2759 72.6754 46.9725 72.3585 51.6725C72.0036 56.9372 71.4121 62.187 71.1829 67.4587C70.9673 72.4185 68.0664 82.3186 73.0303 82.2372C80.007 82.1229 77.5212 66.9261 87.2211 69.8098C103.459 74.6372 110.102 27.3741 113.839 16.9092C116.18 10.355 112.119 31.5696 115.351 37.7336C121.917 50.2578 134.554 16.6134 136.007 13.0467M139.577 3C139.052 3.05835 138.543 4.2025 138.126 4.50725C134.787 6.9459 131.33 9.28092 127.829 11.48C127.35 11.7808 125.827 12.3816 126.392 12.3816M139.831 3.76067C140.017 3.78402 140.27 4.22083 140.324 4.40864C140.402 4.68374 140.394 5.39222 140.408 5.53556C140.836 9.76873 141.349 13.9901 141.859 18.2133" stroke="#201A71" stroke-width="5" stroke-linecap="round"/>
</svg>
