<svg width="51" height="52" viewBox="0 0 51 52" fill="none" xmlns="http://www.w3.org/2000/svg">
<g id="Up_Left_Arrow">
<path id="Icon" d="M10.625 15.375L12.75 15.375L12.75 17.5L14.875 17.5L14.875 19.625L17 19.625L17 21.75L19.125 21.75L19.125 23.875L21.25 23.875L21.25 26L23.375 26L23.375 28.125L25.5 28.125L25.5 30.25L27.625 30.25L27.625 32.375L29.75 32.375L29.75 34.5L31.875 34.5L31.875 36.625L19.125 36.625L19.125 40.875L40.375 40.875L40.375 19.625L36.125 19.625L36.125 32.375L34 32.375L34 30.25L31.875 30.25L31.875 28.125L29.75 28.125L29.75 26L27.625 26L27.625 23.875L25.5 23.875L25.5 21.75L23.375 21.75L23.375 19.625L21.25 19.625L21.25 17.5L19.125 17.5L19.125 15.375L17 15.375L17 13.25L14.875 13.25L14.875 11.125L10.625 11.125L10.625 15.375Z" fill="black"/>
</g>
</svg>
