<svg width="1876" height="1060" viewBox="0 0 1876 1060" fill="none" xmlns="http://www.w3.org/2000/svg">
<circle cx="1278.5" cy="691.5" r="5.5" fill="#17A6FF"/>
<circle cx="1253.5" cy="542.5" r="5.5" fill="#17A6FF"/>
<circle cx="1130.5" cy="858.5" r="5.5" fill="#17A6FF"/>
<circle cx="1054.5" cy="871.5" r="5.5" fill="#17A6FF"/>
<circle cx="1394.5" cy="819.5" r="5.5" fill="#17A6FF"/>
<circle cx="1394.5" cy="569.5" r="5.5" fill="#17A6FF"/>
<circle cx="1347.5" cy="672.5" r="5.5" fill="#17A6FF"/>
<circle cx="1629.5" cy="206.5" r="5.5" fill="#17A6FF"/>
<circle cx="982.5" cy="220.5" r="5.5" fill="#17A6FF"/>
<circle cx="957.5" cy="420.5" r="5.5" fill="#17A6FF"/>
<circle cx="514.5" cy="72.5" r="5.5" fill="#17A6FF"/>
<circle cx="1721.5" cy="16.5" r="5.5" fill="#17A6FF"/>
<circle cx="935.5" cy="949.5" r="5.5" fill="#17A6FF"/>
<ellipse cx="1324.5" cy="814" rx="4.5" ry="3" fill="#016CF7"/>
<ellipse cx="1263.5" cy="731" rx="4.5" ry="3" fill="#016CF7"/>
<ellipse cx="1272.5" cy="612" rx="4.5" ry="3" fill="#016CF7"/>
<ellipse cx="1319.5" cy="1057" rx="4.5" ry="3" fill="#016CF7"/>
<circle cx="1375.5" cy="932.5" r="5.5" fill="#17A6FF"/>
<circle cx="1214.5" cy="853.5" r="5.5" fill="#17A6FF"/>
<circle cx="1244.5" cy="658.5" r="5.5" fill="#17A6FF"/>
<circle cx="44.5" cy="967.5" r="5.5" fill="#17A6FF"/>
<circle cx="39.5" cy="235.5" r="5.5" fill="#17A6FF"/>
<circle cx="1838.5" cy="111.5" r="5.5" fill="#17A6FF"/>
<circle cx="1870.5" cy="965.5" r="5.5" fill="#17A6FF"/>
<circle cx="1458.5" cy="128.5" r="5.5" fill="#17A6FF"/>
<circle cx="422.5" cy="609.5" r="5.5" fill="#17A6FF"/>
<circle cx="84.5" cy="220.5" r="5.5" fill="#17A6FF"/>
<circle cx="163.5" cy="89.5" r="5.5" fill="#17A6FF"/>
<circle cx="394.5" cy="169.5" r="5.5" fill="#17A6FF"/>
<circle cx="1649.5" cy="807.5" r="5.5" fill="#17A6FF"/>
<circle cx="1238.5" cy="590.5" r="5.5" fill="#17A6FF"/>
<ellipse cx="1404.5" cy="757" rx="4.5" ry="3" fill="#016CF7"/>
<ellipse cx="1589.5" cy="1002" rx="4.5" ry="3" fill="#016CF7"/>
<ellipse cx="1093.5" cy="1032" rx="4.5" ry="3" fill="#016CF7"/>
<circle cx="1247.5" cy="810.5" r="5.5" fill="#17A6FF"/>
<circle cx="1267.5" cy="901.5" r="5.5" fill="#016CF7"/>
<circle cx="1211.5" cy="759.5" r="5.5" fill="#016CF7"/>
<circle cx="1721.5" cy="694.5" r="5.5" fill="#016CF7"/>
<circle cx="1763.5" cy="407.5" r="5.5" fill="#016CF7"/>
<circle cx="1065.5" cy="5.5" r="5.5" fill="#016CF7"/>
<circle cx="108.5" cy="620.5" r="5.5" fill="#016CF7"/>
<circle cx="5.5" cy="445.5" r="5.5" fill="#016CF7"/>
<circle cx="1296.5" cy="1037.5" r="5.5" fill="#016CF7"/>
<ellipse cx="1173" cy="437" rx="2" ry="3" fill="#016CF7"/>
<circle cx="1217.5" cy="474.5" r="5.5" fill="#17A6FF"/>
<circle cx="1094.5" cy="876.5" r="5.5" fill="#016CF7"/>
</svg>
