<svg width="1920" height="477" viewBox="0 0 1920 477" fill="none" xmlns="http://www.w3.org/2000/svg">
<g filter="url(#filter0_d_35_1269)">
<path d="M2263.94 366.388C2325.48 403.942 2390.7 392.643 2415.67 382.354L2443.36 81.4321L-515.499 29.0828L-473.866 348.211C-387.841 390.754 -332.27 338.665 -315.237 307.304C-277.997 336.53 -236.924 322.711 -218.22 309.462C-170.921 356.309 -124.07 360.055 -95.3048 351.08C-59.8157 427.413 -7.76081 415.187 13.8306 399.533C100.828 452.254 184.763 411.271 215.855 384.19C295.025 411.344 352.311 372.943 371.057 350.348C400.567 371.954 433.229 364.163 445.872 357.567C480.6 414.204 538.985 396.015 563.837 379.841C597.108 421.058 646.464 406.606 666.983 394.228C740.601 428.242 787.762 402.344 802.14 385.144C833.626 393.613 853.946 377.51 859.53 366.772C893.101 421.478 954.028 410.402 980.294 398.026C1025.02 436.475 1055 410.004 1064.4 391.962C1077.82 390.397 1086.18 383.653 1091.01 376.684C1150.72 388.804 1184.09 359.446 1192.94 343.244C1255.47 390.342 1329.41 365.325 1358.56 346.929C1368.68 376.99 1403.91 375.182 1420.26 370.52C1457.95 401.83 1512.2 394.256 1534.62 386.555C1542.93 395.751 1551.49 396.514 1558.27 394.315C1593.71 445.889 1663.54 421.693 1693.95 402.797C1760.91 412.291 1804.5 398.48 1827.7 384.027C1861.74 390.498 1905.92 378.682 1923.33 371.399C1946.6 381.174 2003.84 398.583 2046.62 390.012C2074.11 384.505 2090.2 372.954 2098.77 362.606C2116.16 362.993 2132.27 359.648 2138.05 357.926C2185.79 372.274 2230.36 371.703 2263.94 366.388Z" fill="#C1C1C1"/>
<path d="M2415.67 382.354C2390.7 392.643 2325.37 403.833 2263.83 366.279M2314.37 352.327C2288.86 364.191 2217.89 381.921 2138.05 357.926C2132.27 359.648 2116.35 362.997 2098.96 362.61M2384.56 331.67C2366.89 339.476 2319.42 347.995 2270.86 319.618M2106.79 347.708C2104.56 358.238 2089.4 381.442 2046.62 390.012C2003.84 398.583 1946.6 381.174 1923.33 371.398C1905.92 378.682 1862.59 391.631 1828.55 385.16M1844.64 369.648C1832.03 386.031 1784.24 415.597 1693.95 402.796C1663.54 421.693 1593.86 446.593 1558.42 395.02M1569.09 387.322C1563.45 393.544 1548.67 402.103 1534.62 386.555C1512.2 394.256 1457.95 401.83 1420.26 370.52C1403.91 375.182 1368.68 376.99 1358.56 346.929C1329.41 365.325 1255.47 390.342 1192.94 343.243C1184.09 359.446 1151.44 388.82 1091.73 376.7M1096.53 363.317C1095.34 371.754 1087.25 389.296 1064.4 391.962C1055 410.004 1025.02 436.475 980.295 398.026C954.028 410.402 893.101 421.478 859.53 366.772M857.282 366.722C851.698 377.46 833.626 393.613 802.14 385.144M785.041 378.604C791.126 381.582 796.824 383.714 802.14 385.144M802.14 385.144C787.762 402.344 740.601 428.242 666.983 394.228C646.464 406.606 597.109 421.058 563.837 379.841C538.985 396.015 480.6 414.204 445.872 357.567C433.229 364.163 400.567 371.953 371.057 350.348C352.311 372.943 295.025 411.344 215.855 384.19C184.763 411.271 100.828 452.254 13.8308 399.533C-7.76055 415.187 -59.8155 427.413 -95.3046 351.08M-77.0724 340.376C-100.345 355.955 -158.357 368.753 -218.22 309.462M-236.381 289.22C-230.331 296.751 -224.266 303.474 -218.22 309.462M-218.22 309.462C-236.924 322.711 -277.996 336.53 -315.237 307.304M-338.923 281.384C-331.396 292.404 -323.409 300.89 -315.237 307.304M-315.237 307.304C-332.269 338.665 -387.841 390.753 -473.866 348.211M2204.73 292.753C2185.25 314.539 2129.27 348.525 2061.14 310.19M2041.32 224.048C2037.38 229.843 2031.71 236.357 2024.38 242.716M1863.67 255.804C1939.63 290.998 1995.14 268.095 2024.38 242.716M1949.96 353.74C1940.33 359.61 1913.51 367.53 1883.26 352.256M1696.41 292.552C1666.74 311.73 1591.74 339.738 1529.08 298.351C1516.67 306.01 1484.44 316.402 1454.89 296.7M1238.44 320.45C1220.61 335.13 1175.53 357.774 1137.74 330.906M858.5 311.996C847.738 323.924 818.149 346.33 785.889 340.534M607.608 265.944C569.042 280.691 475.642 293.32 410.565 225.851M82.6258 306.634C54.3271 308.159 -5.64211 302.352 -38.7622 269.712M-48.2593 258.491C-45.4365 262.544 -42.248 266.277 -38.7622 269.712M-38.7622 269.712C-81.5984 285.456 -179.836 302.064 -230.094 242.542M-187.264 204.613C-221.319 230.041 -310.712 260.269 -395.847 177.753M48.0429 142.4C33.4812 156.623 -11.1519 181.235 -73.1898 165.888M217.103 159.651C196.681 167.661 145.52 175.675 104.247 143.65M861.235 189.061C837.834 196.211 778.694 205.634 729.344 186.126C723.255 190.223 704.089 195.721 676.138 184.942M1515.82 186.963C1474.6 197.155 1374.47 204.608 1303.64 152.881M2024.38 242.716C2037.46 250.678 2074.28 265.569 2116.96 261.44" stroke="black" stroke-width="2.73502" stroke-linecap="round"/>
</g>
<path d="M-237.212 262.024C-294.339 293.334 -353.833 282.301 -376.492 272.917L-395.717 12L2315.08 23.6726L2270.44 299.009C2190.8 334.164 2140.97 288.023 2126.01 260.558C2091.31 285.13 2053.97 272.382 2037.11 260.558C1992.84 300.183 1949.86 302.522 1923.7 294.203C1889.64 359.569 1842.22 347.988 1822.77 334.027C1742.02 377.971 1665.99 340.893 1638.06 316.861C1565.01 338.833 1513.33 304.502 1496.62 284.59C1469.15 302.717 1439.4 295.347 1427.96 289.396C1395 337.735 1341.9 320.872 1319.47 306.398C1288.16 341.422 1243.25 327.967 1224.72 316.861C1156.6 344.875 1113.94 321.558 1101.12 306.398C1072.12 313.12 1053.84 298.795 1048.94 289.396C1017.08 336.087 961.51 325.33 937.707 314.115C895.96 346.523 869.045 323.041 860.805 307.248C848.547 305.635 841.027 299.64 836.747 293.516C781.817 302.854 751.861 276.808 744.079 262.618C685.853 302.167 618.656 279.097 592.335 262.618C582.448 288.435 550.222 286.192 535.345 281.843C500.19 308.21 450.662 300.611 430.292 293.516C422.495 301.313 414.634 301.809 408.47 299.776C374.963 343.72 311.506 321.439 284.041 304.502C222.524 311.428 182.888 298.638 161.939 285.685C130.629 290.629 90.4128 279.555 74.6204 272.917C53.1062 280.928 0.327667 294.889 -38.6726 286.65C-63.7359 281.355 -78.2315 271.05 -85.877 261.931C-101.807 261.931 -116.49 258.727 -121.754 257.125C-165.767 268.621 -206.573 267.269 -237.212 262.024Z" fill="#DCDCDC"/>
<path d="M-376.492 272.917C-353.833 282.301 -294.234 293.241 -237.107 261.931M-283.111 248.885C-259.994 259.642 -195.36 276.35 -121.754 257.125C-116.49 258.727 -101.979 261.931 -86.0497 261.931M-346.967 229.66C-330.946 236.755 -287.643 245.04 -242.6 221.42M-92.9159 248.885C-91.0849 258.04 -77.6728 278.41 -38.6726 286.65C0.327655 294.889 53.1062 280.928 74.6204 272.917C90.4127 279.554 129.825 291.593 161.135 286.65M146.716 272.917C157.931 287.336 201.097 313.84 284.041 304.502C311.506 321.439 374.812 344.326 408.32 300.382M398.707 293.516C403.742 299.009 417.108 306.699 430.292 293.516C450.662 300.611 500.19 308.21 535.345 281.843C550.222 286.192 582.448 288.435 592.335 262.618C618.656 279.097 685.853 302.167 744.079 262.618C751.861 276.808 781.157 302.854 836.087 293.516M831.967 281.843C832.882 289.167 839.932 304.502 860.805 307.248C869.044 323.041 895.96 346.523 937.707 314.115C961.51 325.329 1017.08 336.087 1048.94 289.396M1051 289.396C1055.9 298.795 1072.12 313.12 1101.12 306.398M1116.92 301.069C1111.28 303.528 1106.02 305.263 1101.12 306.398M1101.12 306.398C1113.94 321.558 1156.6 344.875 1224.72 316.861C1243.25 327.967 1288.16 341.422 1319.47 306.398C1341.9 320.872 1395 337.734 1427.96 289.396C1439.4 295.347 1469.15 302.717 1496.62 284.59C1513.33 304.502 1565.01 338.833 1638.06 316.861C1665.99 340.893 1742.02 377.971 1822.77 334.027C1842.22 347.988 1889.64 359.569 1923.7 294.202M1907.22 284.59C1928.22 298.518 1981.08 310.709 2037.11 260.558M2054.16 243.392C2048.46 249.792 2042.77 255.493 2037.11 260.558M2037.11 260.558C2053.97 272.382 2091.31 285.13 2126.01 260.558M2148.23 238.586C2141.11 247.976 2133.62 255.166 2126.01 260.558M2126.01 260.558C2140.97 288.023 2190.8 334.164 2270.44 299.009M-181.49 199.448C-164.096 218.674 -113.515 249.16 -50.3452 217.301M-30.4331 143.145C-26.9481 148.235 -21.8829 153.981 -15.3038 159.624M131.61 174.043C61.3307 203.034 10.9551 182.147 -15.3038 159.624M50.5885 257.125C59.2858 262.389 83.6838 269.759 111.698 257.125M702.881 242.019C718.903 255.065 759.734 275.526 794.889 253.005M1051 242.019C1060.61 252.547 1087.25 272.505 1116.92 268.111M1281.71 207.001C1316.72 220.505 1402 233.23 1462.97 176.103M1761.66 252.318C1787.54 254.182 1842.58 250.313 1873.58 222.707M1882.5 213.181C1879.83 216.633 1876.84 219.802 1873.58 222.707M1873.58 222.707C1912.48 237.155 2002.11 253.417 2049.35 202.881M2010.9 169.237C2041.57 191.895 2122.82 219.772 2202.47 150.011M1796.67 110.874C1809.72 123.462 1850.09 145.617 1907.22 133.532M1641.5 122.546C1660.04 129.87 1706.73 137.789 1745.18 110.874M1051 135.592C1072.29 142.23 1126.25 151.522 1171.85 135.592C1177.34 139.254 1194.78 144.381 1220.6 135.592M451.577 121.173C489.112 130.786 580.662 139.163 646.578 95.7681M-15.3038 159.624C-27.442 166.261 -61.4685 178.438 -100.469 174.043" stroke="black" stroke-width="2.73502" stroke-linecap="round"/>
<path d="M87.7984 200.852C46.1838 223.66 2.84495 215.623 -13.6608 208.788L-27.6657 -61.2788L1947.02 -52.7758L1914.51 227.794C1856.49 253.403 1820.19 219.791 1809.3 199.784C1784.02 217.684 1756.82 208.398 1744.54 199.784C1712.29 228.65 1680.98 230.353 1661.92 224.293C1637.12 271.91 1602.57 263.473 1588.4 253.303C1529.58 285.314 1474.19 258.305 1453.85 240.799C1400.63 256.804 1362.99 231.796 1350.82 217.291C1330.81 230.495 1309.13 225.127 1300.8 220.792C1276.79 256.004 1238.11 243.72 1221.77 233.177C1198.96 258.69 1166.25 248.889 1152.75 240.799C1103.13 261.206 1072.05 244.22 1062.72 233.177C1041.58 238.073 1028.27 227.639 1024.7 220.792C1001.49 254.804 961.013 246.968 943.674 238.798C913.263 262.406 893.656 245.3 887.654 233.796C878.724 232.621 873.247 228.254 870.129 223.793C830.115 230.595 808.293 211.622 802.624 201.285C760.21 230.095 711.259 213.289 692.086 201.285C684.883 220.092 661.408 218.458 650.571 215.29C624.962 234.497 588.883 228.961 574.044 223.793C568.365 229.473 562.638 229.834 558.148 228.353C533.74 260.364 487.514 244.133 467.507 231.796C422.695 236.841 393.822 227.524 378.562 218.089C355.754 221.69 326.458 213.623 314.954 208.788C299.282 214.623 260.835 224.793 232.425 218.791C214.168 214.934 203.608 207.427 198.039 200.785C186.435 200.785 175.739 198.451 171.904 197.284C139.842 205.658 110.118 204.673 87.7984 200.852Z" fill="white"/>
<path d="M-13.6608 208.787C2.84501 215.623 46.2602 223.593 87.8747 200.785M54.363 191.281C71.2022 199.117 118.285 211.288 171.904 197.283C175.739 198.45 186.309 200.785 197.913 200.785M7.84676 177.276C19.5175 182.445 51.0618 188.48 83.8733 171.274M192.911 191.281C194.245 197.95 204.015 212.789 232.425 218.791C260.835 224.793 299.282 214.623 314.954 208.787C326.458 213.622 355.168 222.392 377.976 218.791M367.472 208.787C375.642 219.291 407.086 238.598 467.507 231.795C487.514 244.133 533.63 260.806 558.039 228.794M551.036 223.793C554.704 227.794 564.441 233.396 574.044 223.793C588.883 228.961 624.962 234.496 650.571 215.29C661.408 218.457 684.883 220.091 692.086 201.285C711.259 213.289 760.209 230.095 802.624 201.285C808.293 211.622 829.634 230.595 869.648 223.793M866.647 215.29C867.314 220.625 872.449 231.795 887.654 233.796C893.656 245.3 913.263 262.406 943.674 238.798C961.013 246.967 1001.49 254.803 1024.7 220.792M1026.2 220.792C1029.77 227.638 1041.58 238.073 1062.72 233.177M1074.22 229.295C1070.12 231.086 1066.28 232.35 1062.72 233.177M1062.72 233.177C1072.05 244.22 1103.13 261.206 1152.75 240.799C1166.25 248.889 1198.96 258.69 1221.77 233.177C1238.11 243.72 1276.79 256.004 1300.8 220.792C1309.13 225.126 1330.81 230.495 1350.82 217.29C1362.99 231.795 1400.63 256.804 1453.85 240.799C1474.19 258.305 1529.58 285.314 1588.4 253.303C1602.57 263.473 1637.12 271.909 1661.92 224.293M1649.92 217.29C1665.21 227.436 1703.73 236.317 1744.54 199.784M1756.96 187.28C1752.81 191.942 1748.66 196.095 1744.54 199.784M1744.54 199.784C1756.82 208.398 1784.02 217.684 1809.3 199.784M1825.48 183.779C1820.3 190.619 1814.84 195.856 1809.3 199.784M1809.3 199.784C1820.19 219.791 1856.49 253.403 1914.51 227.794M128.389 155.269C141.06 169.274 177.906 191.481 223.922 168.273M238.427 114.254C240.966 117.962 244.656 122.148 249.448 126.259M356.468 136.762C305.273 157.88 268.577 142.666 249.448 126.259M297.448 197.283C303.783 201.118 321.556 206.487 341.963 197.283M467.507 162.271C487.014 174.776 536.631 193.482 579.046 168.273C587.216 173.275 608.557 180.277 628.563 168.273M772.614 186.28C784.285 195.783 814.028 210.688 839.637 194.282M1026.2 186.28C1033.2 193.949 1052.61 208.487 1074.22 205.286M1194.26 160.771C1219.77 170.607 1281.89 179.877 1326.31 138.263M1543.88 193.782C1562.74 195.14 1602.83 192.321 1625.41 172.212M1631.91 165.272C1629.97 167.787 1627.79 170.095 1625.41 172.212M1625.41 172.212C1653.75 182.736 1719.04 194.582 1753.46 157.77M1725.45 133.261C1747.79 149.767 1806.97 170.074 1865 119.256M1569.39 90.7462C1578.9 99.916 1608.31 116.055 1649.92 107.252M1456.35 99.2491C1469.86 104.584 1503.87 110.353 1531.88 90.7462M1026.2 108.752C1041.71 113.587 1081.02 120.356 1114.23 108.752C1118.23 111.42 1130.94 115.155 1149.75 108.752M589.55 98.2488C616.893 105.251 683.583 111.353 731.599 79.7423M249.448 126.259C240.606 131.094 215.819 139.963 187.409 136.762" stroke="black" stroke-width="2.73502" stroke-linecap="round"/>
<defs>
<filter id="filter0_d_35_1269" x="-515.499" y="29.0828" width="2958.86" height="425.342" filterUnits="userSpaceOnUse" color-interpolation-filters="sRGB">
<feFlood flood-opacity="0" result="BackgroundImageFix"/>
<feColorMatrix in="SourceAlpha" type="matrix" values="0 0 0 0 0 0 0 0 0 0 0 0 0 0 0 0 0 0 127 0" result="hardAlpha"/>
<feOffset dy="27.3502"/>
<feComposite in2="hardAlpha" operator="out"/>
<feColorMatrix type="matrix" values="0 0 0 0 0 0 0 0 0 0 0 0 0 0 0 0 0 0 0.09 0"/>
<feBlend mode="normal" in2="BackgroundImageFix" result="effect1_dropShadow_35_1269"/>
<feBlend mode="normal" in="SourceGraphic" in2="effect1_dropShadow_35_1269" result="shape"/>
</filter>
</defs>
</svg>
