<svg width="424" height="354" viewBox="0 0 424 354" fill="none" xmlns="http://www.w3.org/2000/svg">
<path d="M19.7079 129.15C19.7079 129.15 18.5929 150.184 35.2374 155.107C51.8818 160.029 54.9188 158.115 54.9188 158.115L56.3213 167.018C56.3213 167.018 34.7243 166.388 26.0606 158.374C17.397 150.359 14.514 138.844 19.7044 129.157L19.7079 129.15Z" fill="#DDDDDD"/>
<path d="M44.7048 108.896C44.7048 108.896 42.4173 94.8146 48.9809 80.1141C58.4727 58.8639 81.9423 36.9128 119.702 59.3536C119.702 59.3536 125.173 25.5299 174.823 40.1268C181.689 42.1474 184.007 46.9777 192.14 53.5261C192.14 53.5261 260.209 -6.73179 306.72 46.5358C347.399 93.1203 320.865 121.137 320.865 121.137C320.865 121.137 350.717 120.603 356.724 148.759C361.044 169.019 341.642 184.188 341.642 184.188C341.642 184.188 366.807 210.308 362.371 228.219C357.941 246.133 342.712 257.619 342.712 257.619C342.712 257.619 386.12 293.713 351.122 315.292C316.124 336.871 291.317 289.762 291.317 289.762C291.317 289.762 264.987 298.773 248.82 288.772C232.66 278.773 226.215 260.098 226.215 260.098C226.215 260.098 197.966 265.45 184.086 255.297C170.205 245.144 160.813 225.876 160.813 225.876C160.813 225.876 121.832 237.859 89.8273 212.203C57.829 186.551 58.8838 168.155 58.8838 168.155C58.8838 168.155 20.7124 165.99 17.7698 143.117C14.8272 120.244 44.6995 108.877 44.6995 108.877L44.7048 108.896Z" fill="white"/>
<path d="M55.0297 156.224C55.0297 156.224 72.8222 204.696 110.731 218.612C147.305 232.039 178.585 214.412 178.585 214.412C178.585 214.412 158.544 227.029 142.279 228.295C124.705 229.663 98.7597 221.771 84.0093 208.154C69.3757 194.645 64.665 190.124 60.3675 180.227C55.1693 168.278 54.6464 157.953 55.0358 156.227L55.0297 156.224Z" fill="#DDDDDD"/>
<path d="M168.374 221.285C168.374 221.285 208.552 251.45 229.883 228.248C229.883 228.248 250.484 279.411 284.87 248.821C313.209 217.218 289.803 197.581 289.803 197.581C289.803 197.581 304.79 211.537 304.139 224.559C304.139 224.559 317.856 237.543 336.946 222.918C356.036 208.293 341.657 183.727 341.657 183.727C341.657 183.727 359.403 196.649 361.862 213.827C363.953 228.421 364.065 239.687 344.389 256.17L342.067 257.884C342.067 257.884 358.534 271.592 361.802 280.525C365.07 289.459 368.259 299.817 359.651 308.885C351.042 317.953 340.404 322.933 335.217 322.639C330.03 322.346 319.511 320.326 312.672 315.073C305.834 309.819 299.058 302.757 297.07 299.432C295.082 296.107 291.288 289.788 291.288 289.788C291.288 289.788 275.412 293.714 268.253 293.264C261.094 292.814 247.59 290.058 241.764 282.826C235.942 275.588 233.192 274.864 231.17 270.537C229.148 266.209 226.779 259.741 226.779 259.741C226.779 259.741 210.311 264.911 203.378 263.007C196.444 261.103 184.025 259.212 175.833 249.527C167.644 239.835 161.566 227.95 161.114 224.279" fill="#DDDDDD"/>
<path d="M223.028 115.689C223.028 115.689 195.958 121.262 192.943 137.558C192.943 137.558 185.908 124.849 184.773 123.645C183.637 122.442 195.107 112.374 201.683 111.336C207.803 110.37 212.103 110.188 215.745 111.634C219.387 113.081 223.028 115.689 223.028 115.689Z" fill="#DDDDDD"/>
<path d="M331.188 263.504C331.188 263.504 363.572 282.44 363.872 301.97C363.872 301.97 365.531 296.529 365.326 292.755C365.12 288.982 365.135 287.894 363.477 284.205C361.819 280.517 359.232 275.378 359.232 275.378L353.238 268.651C353.238 268.651 349.63 264.754 348.42 263.694C347.21 262.635 346.326 260.666 345.204 260.388C344.081 260.11 342.087 257.87 342.087 257.87L331.197 263.501L331.188 263.504Z" fill="white"/>
<path d="M46.6047 120.221C46.2535 118.922 35.8017 83.7011 64.5117 60.3523C93.2313 37.0008 130.539 59.1257 126.455 75.7845" stroke="black" stroke-width="3" stroke-linecap="round" stroke-linejoin="round"/>
<path d="M201.019 71.7702C201.019 71.7702 194.8 39.3417 158.788 36.5945C122.776 33.8474 119.819 60.6403 119.819 60.6403" stroke="black" stroke-width="3" stroke-linecap="round" stroke-linejoin="round"/>
<path d="M307.986 120.688C307.986 120.688 342.748 117.975 353.543 139.876C364.338 161.777 346.666 183.056 333.846 188.856" stroke="black" stroke-width="3" stroke-linecap="round" stroke-linejoin="round"/>
<path d="M329.5 264.542C331.073 264.347 363.185 250.984 362.808 223.002C362.43 195.019 341.998 183.823 341.998 183.823" stroke="black" stroke-width="3" stroke-linecap="round" stroke-linejoin="round"/>
<path d="M223.681 249.887C224.506 250.36 228.175 280.229 253.414 290.316C278.652 300.402 302.557 284.16 302.557 284.16" stroke="black" stroke-width="3" stroke-linecap="round" stroke-linejoin="round"/>
<path d="M342.357 258.031C342.357 258.031 385.183 290.258 354.301 314.197C323.419 338.136 297.428 304.102 291.563 290.146" stroke="black" stroke-width="3" stroke-linecap="round" stroke-linejoin="round"/>
<path d="M179.21 214.16C179.21 214.16 142.862 244.461 96.3691 216.703C49.8824 188.949 55.4091 154.491 55.4091 154.491" stroke="black" stroke-width="3" stroke-linecap="round" stroke-linejoin="round"/>
<path d="M43.801 109.839C43.801 109.839 16.5697 117.236 17.4259 141.837C18.2821 166.438 55.3949 167.266 55.3949 167.266" stroke="black" stroke-width="3" stroke-linecap="round" stroke-linejoin="round"/>
<path d="M77.2301 142.527C77.2301 142.527 98.8027 80.8377 151.66 101.19C203.975 121.328 196.157 163.602 196.157 163.602" stroke="black" stroke-width="3" stroke-linecap="round" stroke-linejoin="round"/>
<path d="M239.619 192.177C239.619 192.177 280.431 180.131 297.289 205.525C313.738 230.302 295.943 251.145 295.943 251.145" stroke="black" stroke-width="3" stroke-linecap="round" stroke-linejoin="round"/>
<path d="M217.621 135.724C217.621 135.724 268.861 107.147 291.835 145.041C311.528 177.52 289.14 196.834 289.14 196.834" stroke="black" stroke-width="3" stroke-linecap="round" stroke-linejoin="round"/>
<path d="M184.416 123.63C184.416 123.63 196.586 106.864 213.23 110.925C229.873 114.986 231.735 129.57 231.735 129.57" stroke="black" stroke-width="3" stroke-linecap="round" stroke-linejoin="round"/>
<path d="M192.136 53.5233C192.136 53.5233 241.795 6.37957 287.971 32.1281C334.147 57.8766 334.883 104.325 321.572 121.168" stroke="black" stroke-width="3" stroke-linecap="round" stroke-linejoin="round"/>
<path d="M161.047 224.198C161.047 224.198 176.178 276.717 226.213 260.105" stroke="black" stroke-width="3" stroke-linecap="round" stroke-linejoin="round"/>
</svg>
