<svg width="84" height="84" viewBox="0 0 84 84" fill="none" xmlns="http://www.w3.org/2000/svg">
<rect x="2.33324" y="2.05882" width="79.6078" height="79.6078" rx="39.8039" fill="#414344"/>
<rect x="2.33324" y="2.05882" width="79.6078" height="79.6078" rx="39.8039" stroke="black" stroke-width="4.11765"/>
<rect x="10.5687" y="10.2942" width="63.1373" height="63.1373" rx="31.5686" fill="#191919"/>
<rect x="10.5687" y="10.2942" width="63.1373" height="63.1373" rx="31.5686" stroke="black" stroke-width="4.11765"/>
<path fill-rule="evenodd" clip-rule="evenodd" d="M45.3712 36.5068C46.521 35.9361 47.9835 35.0957 49.4481 33.9443C49.7568 34.5829 49.7909 35.1401 49.6315 35.5899C49.5188 35.9069 49.3062 36.1827 49.0271 36.4021C48.7247 36.6391 48.3468 36.812 47.9292 36.9053C47.1369 37.083 46.2116 36.9795 45.3712 36.5068ZM45.5706 42.3553L47.0923 43.2306C43.9852 44.9649 43.1404 48.1851 42.1368 51.3214C41.1336 48.1851 40.2886 44.9646 37.1816 43.2306L38.7033 42.3553C39.0053 42.2416 39.1995 41.9474 39.1842 41.6262C39.0446 38.6888 39.8412 37.3896 40.9158 36.5743C41.3009 36.2822 41.7216 36.1356 42.1368 36.1356C42.5519 36.1356 42.9727 36.2822 43.3578 36.5743C44.432 37.39 45.2286 38.6888 45.0893 41.6262C45.074 41.9474 45.2689 42.2416 45.5706 42.3553ZM42.1372 23.1755C43.8962 23.2227 45.6597 23.5626 47.1902 24.2241C48.2501 24.6829 49.2386 25.2886 50.1343 26.0132C50.5387 26.3403 50.8717 26.6563 51.2385 27.0201C52.2278 27.0541 53.6737 25.9598 54.3449 24.9358C53.1896 28.707 47.9184 33.1601 44.2692 34.8643C44.2678 34.8636 44.2667 34.8629 44.2657 34.8622C43.6108 34.3642 42.8742 34.1151 42.1374 34.1151C41.4008 34.1151 40.6641 34.3642 40.0092 34.8622C40.0082 34.8629 40.0072 34.8639 40.0058 34.8643C36.3558 33.1601 31.085 28.7066 29.9297 24.9358C30.6009 25.9598 32.0464 27.0544 33.0357 27.0201C33.4025 26.6566 33.7355 26.3403 34.1399 26.0132C35.0352 25.2886 36.0242 24.6829 37.0841 24.2241C38.6149 23.5626 40.3781 23.2227 42.1372 23.1755ZM38.9031 36.5068C37.7536 35.9361 36.2908 35.0957 34.8261 33.9443C34.5174 34.5829 34.4833 35.1401 34.6424 35.5899C34.7551 35.9069 34.9677 36.1827 35.2468 36.4021C35.5495 36.6391 35.9274 36.812 36.3451 36.9053C37.1374 37.083 38.063 36.9795 38.9031 36.5068Z" fill="white"/>
<path fill-rule="evenodd" clip-rule="evenodd" d="M51.0525 32.5338C51.8588 31.7236 52.5693 30.8268 53.1404 30.0264L53.4306 30.5701C54.3646 32.4309 54.85 34.2844 54.85 36.3701L54.848 39.68L54.8653 41.3956C54.9329 45.6079 55.8484 49.8693 57.9216 53.7694L53.5838 50.2862L50.5146 55.2459L47.2902 52.2232L42.1373 60.55L36.9844 52.2236L33.7601 55.2463L30.6909 50.2866L26.353 53.7698C28.4263 49.8697 29.3415 45.6079 29.4093 41.396L29.4267 39.6803L29.4246 36.3704C29.4246 34.2844 29.9097 32.4312 30.844 30.5704L31.1339 30.0267C31.7053 30.8268 32.4155 31.7236 33.2218 32.5342L32.9698 33.055C32.4806 34.0664 32.3188 35.1975 32.6998 36.2734C32.9455 36.9661 33.3937 37.5603 33.9717 38.014C34.533 38.4543 35.1972 38.7514 35.8925 38.9072C36.3456 39.0088 36.807 39.0507 37.2657 39.0365C37.1588 39.6405 37.1118 40.2666 37.1091 40.905L33.0172 43.2584L36.1747 45.0208C36.427 45.1619 36.6675 45.323 36.893 45.5036C39.4962 47.8311 41.0614 54.7168 42.137 58.0801C43.2126 54.7168 44.7778 47.8311 47.381 45.5036C47.6065 45.3234 47.847 45.1619 48.0993 45.0208L51.2568 43.2584L47.1649 40.905C47.1618 40.2666 47.1151 39.6405 47.0083 39.0365C47.467 39.0507 47.9284 39.0088 48.3815 38.9072C49.0767 38.7514 49.741 38.4543 50.3023 38.014C50.8803 37.5603 51.3285 36.9661 51.5742 36.2734C51.9552 35.1978 51.7934 34.0668 51.3041 33.055L51.0525 32.5338Z" fill="white"/>
</svg>
