<svg width="1920" height="409" viewBox="0 0 1920 409" fill="none" xmlns="http://www.w3.org/2000/svg">
<path d="M-66 -107.501C-66 -107.501 144.347 -7.35199 289.313 3.50242C480.51 17.8183 575.975 -100.005 767.56 -107.501C998.164 -116.523 1117.24 -0.3517 1347.99 3.50242C1600.86 7.72595 1986 -107.501 1986 -107.501V225.508H-66V-107.501Z" fill="#0396F2"/>
<path d="M-66 12.3012C-66 12.3012 144.347 112.45 289.313 123.304C480.51 137.62 575.975 19.797 767.56 12.3012C998.164 3.27871 1117.24 119.45 1347.99 123.304C1600.86 127.528 1986 12.3012 1986 12.3012V345.31H-66V12.3012Z" fill="#016CF7"/>
<path d="M-66 122.267C-66 122.267 144.347 222.416 289.313 233.27C480.51 247.586 575.975 129.763 767.56 122.267C998.164 113.245 1117.24 229.416 1347.99 233.27C1600.86 237.494 1986 122.267 1986 122.267V455.276H-66V122.267Z" fill="#0396F2"/>
<path d="M-66 226.008C-66 226.008 144.347 326.156 289.313 337.011C480.51 351.327 575.975 233.504 767.56 226.008C998.164 216.985 1117.24 333.157 1347.99 337.011C1600.86 341.234 1986 226.008 1986 226.008V559.017H-66V226.008Z" fill="#016CF7"/>
<circle cx="1008.36" cy="353.441" r="2.00558" fill="#ECEE5C"/>
<circle cx="980.649" cy="323.905" r="2.00558" fill="#ECEE5C"/>
<circle cx="1059.41" cy="168.564" r="2.00558" fill="#ECEE5C"/>
<circle cx="706.431" cy="213.051" r="2.00558" fill="#ECEE5C"/>
<circle cx="649.181" cy="326.092" r="2.00558" fill="#ECEE5C"/>
<circle cx="488.006" cy="234.93" r="2.00558" fill="#ECEE5C"/>
<circle cx="545.985" cy="282.699" r="2.00558" fill="#ECEE5C"/>
<circle cx="492.017" cy="364.381" r="2.00558" fill="#ECEE5C"/>
<circle cx="568.593" cy="24.8908" r="2.00558" fill="#ECEE5C"/>
<circle cx="566.405" cy="36.1955" r="2.00558" fill="#ECEE5C"/>
<circle cx="489.829" cy="125.17" r="2.00558" fill="#ECEE5C"/>
<circle cx="1106.09" cy="20.8801" r="2.00558" fill="#ECEE5C"/>
<circle cx="1152.4" cy="176.586" r="2.00558" fill="#ECEE5C"/>
<circle cx="947.101" cy="129.181" r="2.00558" fill="#ECEE5C"/>
<circle cx="963.145" cy="121.159" r="2.00558" fill="#ECEE5C"/>
<circle cx="1055.4" cy="244.046" r="2.00558" fill="#ECEE5C"/>
<circle cx="1156.77" cy="264.467" r="2.00558" fill="#ECEE5C"/>
<circle cx="812.909" cy="367.662" r="2.00558" fill="#ECEE5C"/>
<circle cx="343.362" cy="373.441" r="2.00558" fill="#ECEE5C"/>
<circle cx="315.649" cy="343.905" r="2.00558" fill="#ECEE5C"/>
<circle cx="394.413" cy="188.564" r="2.00558" fill="#ECEE5C"/>
<circle cx="41.4314" cy="233.051" r="2.00558" fill="#ECEE5C"/>
<circle cx="441.088" cy="40.8801" r="2.00558" fill="#ECEE5C"/>
<circle cx="487.399" cy="196.586" r="2.00558" fill="#ECEE5C"/>
<circle cx="282.101" cy="149.181" r="2.00558" fill="#ECEE5C"/>
<circle cx="298.145" cy="141.159" r="2.00558" fill="#ECEE5C"/>
<circle cx="390.402" cy="264.046" r="2.00558" fill="#ECEE5C"/>
<circle cx="491.775" cy="284.467" r="2.00558" fill="#ECEE5C"/>
<circle cx="147.909" cy="387.662" r="2.00558" fill="#ECEE5C"/>
<circle cx="1782.36" cy="353.441" r="2.00558" fill="#ECEE5C"/>
<circle cx="1754.65" cy="323.905" r="2.00558" fill="#ECEE5C"/>
<circle cx="1833.41" cy="168.564" r="2.00558" fill="#ECEE5C"/>
<circle cx="1480.43" cy="213.051" r="2.00558" fill="#ECEE5C"/>
<circle cx="1423.18" cy="326.092" r="2.00558" fill="#ECEE5C"/>
<circle cx="1262.01" cy="234.93" r="2.00558" fill="#ECEE5C"/>
<circle cx="1319.98" cy="282.699" r="2.00558" fill="#ECEE5C"/>
<circle cx="1266.02" cy="364.381" r="2.00558" fill="#ECEE5C"/>
<circle cx="1342.59" cy="24.8908" r="2.00558" fill="#ECEE5C"/>
<circle cx="1340.41" cy="36.1955" r="2.00558" fill="#ECEE5C"/>
<circle cx="1263.83" cy="125.17" r="2.00558" fill="#ECEE5C"/>
<circle cx="1880.09" cy="20.8801" r="2.00558" fill="#ECEE5C"/>
<circle cx="1721.1" cy="129.181" r="2.00558" fill="#ECEE5C"/>
<circle cx="1737.15" cy="121.159" r="2.00558" fill="#ECEE5C"/>
<circle cx="1829.4" cy="244.046" r="2.00558" fill="#ECEE5C"/>
<circle cx="1586.91" cy="367.662" r="2.00558" fill="#ECEE5C"/>
</svg>
