<svg width="60" height="17" viewBox="0 0 60 17" fill="none" xmlns="http://www.w3.org/2000/svg">
<path d="M1 8.25C1 4.38401 4.13401 1.25 8 1.25C11.866 1.25 15 4.38401 15 8.25C15 12.116 11.866 15.25 8 15.25C4.13401 15.25 1 12.116 1 8.25Z" stroke="white" stroke-width="2"/>
<path d="M23 8.25C23 4.38401 26.134 1.25 30 1.25C33.866 1.25 37 4.38401 37 8.25C37 12.116 33.866 15.25 30 15.25C26.134 15.25 23 12.116 23 8.25Z" stroke="white" stroke-width="2"/>
<path d="M45 8.25C45 4.38401 48.134 1.25 52 1.25C55.866 1.25 59 4.38401 59 8.25C59 12.116 55.866 15.25 52 15.25C48.134 15.25 45 12.116 45 8.25Z" stroke="white" stroke-width="2"/>
</svg>
