<svg width="24" height="24" viewBox="0 0 24 24" fill="none" xmlns="http://www.w3.org/2000/svg">
<path d="M11.2 16H12.8V11.2H11.2V16ZM12 9.6C12.2267 9.6 12.4168 9.5232 12.5704 9.3696C12.724 9.216 12.8005 9.02613 12.8 8.8C12.7995 8.57387 12.7227 8.384 12.5696 8.2304C12.4165 8.0768 12.2267 8 12 8C11.7733 8 11.5835 8.0768 11.4304 8.2304C11.2773 8.384 11.2005 8.57387 11.2 8.8C11.1995 9.02613 11.2763 9.21627 11.4304 9.3704C11.5845 9.52453 11.7744 9.60107 12 9.6ZM12 20C10.8933 20 9.85333 19.7899 8.88 19.3696C7.90667 18.9493 7.06 18.3795 6.34 17.66C5.62 16.9405 5.05013 16.0939 4.6304 15.12C4.21067 14.1461 4.00053 13.1061 4 12C3.99947 10.8939 4.2096 9.85387 4.6304 8.88C5.0512 7.90613 5.62107 7.05947 6.34 6.34C7.05893 5.62053 7.9056 5.05067 8.88 4.6304C9.8544 4.21013 10.8944 4 12 4C13.1056 4 14.1456 4.21013 15.12 4.6304C16.0944 5.05067 16.9411 5.62053 17.66 6.34C18.3789 7.05947 18.9491 7.90613 19.3704 8.88C19.7917 9.85387 20.0016 10.8939 20 12C19.9984 13.1061 19.7883 14.1461 19.3696 15.12C18.9509 16.0939 18.3811 16.9405 17.66 17.66C16.9389 18.3795 16.0923 18.9496 15.12 19.3704C14.1477 19.7912 13.1077 20.0011 12 20ZM12 18.4C13.7867 18.4 15.3 17.78 16.54 16.54C17.78 15.3 18.4 13.7867 18.4 12C18.4 10.2133 17.78 8.7 16.54 7.46C15.3 6.22 13.7867 5.6 12 5.6C10.2133 5.6 8.7 6.22 7.46 7.46C6.22 8.7 5.6 10.2133 5.6 12C5.6 13.7867 6.22 15.3 7.46 16.54C8.7 17.78 10.2133 18.4 12 18.4Z" fill="white"/>
</svg>
