<svg width="1837" height="1140" viewBox="0 0 1837 1140" fill="none" xmlns="http://www.w3.org/2000/svg">
<mask id="path-1-inside-1_35_1304" fill="white">
<path fill-rule="evenodd" clip-rule="evenodd" d="M1706.84 143.006C1706.77 145.081 1706.63 147.136 1706.44 149.168C1725.99 155.573 1740.83 175.792 1744.44 200.926C1744.88 200.928 1745.33 200.938 1745.77 200.954C1775.02 202.014 1797.65 232.851 1796.31 269.829C1795.49 292.39 1785.94 312.025 1771.98 323.665C1778.63 339.415 1782.12 357.604 1781.42 376.86C1781.24 382.005 1780.76 387.052 1780.01 391.977C1806.01 410.32 1822.94 446.005 1821.48 486.383C1820.17 522.543 1804.42 553.882 1781.56 571.822C1801.36 591.58 1813.54 622.658 1812.29 657.162C1810.89 695.901 1792.91 729.107 1767.37 746.232C1767.64 750.788 1767.7 755.419 1767.53 760.109C1765.27 822.476 1723.62 871.591 1674.5 869.811C1668.24 869.584 1662.16 868.541 1656.32 866.765C1639.08 893.141 1612.84 909.604 1584.03 908.56C1570.69 908.076 1558.17 903.887 1547.05 896.792C1545.67 897.14 1544.29 897.479 1542.9 897.809C1513.61 919.059 1472.38 931.531 1427.16 929.892C1386.06 928.402 1349.09 915.528 1321.93 895.694C1221.53 877.612 1117.69 842.804 1025.5 811.9C932.305 780.659 851.01 753.408 797.208 751.458C611.59 744.731 533.294 780.712 462.257 813.358C440.989 823.132 420.371 832.607 397.719 840.547C427.193 801.303 455.109 753.766 493.677 688.088L493.678 688.088L493.678 688.087C497.096 682.267 500.597 676.305 504.19 670.193C475.177 660.65 454.504 626.656 455.941 586.989C457.442 545.575 482.535 512.071 514.042 506.663C513.469 501.578 513.262 496.345 513.456 491.01C515.126 444.924 546.01 408.635 582.437 409.955C606.305 410.82 626.63 427.617 637.339 452.061C690.199 369.231 756.06 270.253 840.499 150.632C1146.65 58.921 1421.91 11.2082 1593.11 87.1924C1605.69 68.8297 1624.39 57.4634 1644.87 58.2056C1680.75 59.5059 1708.49 97.4722 1706.84 143.006Z"/>
</mask>
<path fill-rule="evenodd" clip-rule="evenodd" d="M1706.84 143.006C1706.77 145.081 1706.63 147.136 1706.44 149.168C1725.99 155.573 1740.83 175.792 1744.44 200.926C1744.88 200.928 1745.33 200.938 1745.77 200.954C1775.02 202.014 1797.65 232.851 1796.31 269.829C1795.49 292.39 1785.94 312.025 1771.98 323.665C1778.63 339.415 1782.12 357.604 1781.42 376.86C1781.24 382.005 1780.76 387.052 1780.01 391.977C1806.01 410.32 1822.94 446.005 1821.48 486.383C1820.17 522.543 1804.42 553.882 1781.56 571.822C1801.36 591.58 1813.54 622.658 1812.29 657.162C1810.89 695.901 1792.91 729.107 1767.37 746.232C1767.64 750.788 1767.7 755.419 1767.53 760.109C1765.27 822.476 1723.62 871.591 1674.5 869.811C1668.24 869.584 1662.16 868.541 1656.32 866.765C1639.08 893.141 1612.84 909.604 1584.03 908.56C1570.69 908.076 1558.17 903.887 1547.05 896.792C1545.67 897.14 1544.29 897.479 1542.9 897.809C1513.61 919.059 1472.38 931.531 1427.16 929.892C1386.06 928.402 1349.09 915.528 1321.93 895.694C1221.53 877.612 1117.69 842.804 1025.5 811.9C932.305 780.659 851.01 753.408 797.208 751.458C611.59 744.731 533.294 780.712 462.257 813.358C440.989 823.132 420.371 832.607 397.719 840.547C427.193 801.303 455.109 753.766 493.677 688.088L493.678 688.088L493.678 688.087C497.096 682.267 500.597 676.305 504.19 670.193C475.177 660.65 454.504 626.656 455.941 586.989C457.442 545.575 482.535 512.071 514.042 506.663C513.469 501.578 513.262 496.345 513.456 491.01C515.126 444.924 546.01 408.635 582.437 409.955C606.305 410.82 626.63 427.617 637.339 452.061C690.199 369.231 756.06 270.253 840.499 150.632C1146.65 58.921 1421.91 11.2082 1593.11 87.1924C1605.69 68.8297 1624.39 57.4634 1644.87 58.2056C1680.75 59.5059 1708.49 97.4722 1706.84 143.006Z" fill="#C1C1C1"/>
<path d="M1706.44 149.168L1703.45 148.885L1703.23 151.272L1705.51 152.019L1706.44 149.168ZM1744.44 200.926L1741.47 201.352L1741.84 203.913L1744.43 203.926L1744.44 200.926ZM1771.98 323.665L1770.05 321.361L1768.35 322.785L1769.21 324.833L1771.98 323.665ZM1780.01 391.977L1777.04 391.525L1776.76 393.359L1778.28 394.428L1780.01 391.977ZM1781.56 571.822L1779.71 569.462L1777.04 571.553L1779.44 573.946L1781.56 571.822ZM1767.37 746.232L1765.7 743.74L1764.27 744.697L1764.38 746.411L1767.37 746.232ZM1656.32 866.765L1657.19 863.895L1655.04 863.239L1653.8 865.124L1656.32 866.765ZM1547.05 896.792L1548.67 894.263L1547.58 893.567L1546.32 893.883L1547.05 896.792ZM1542.9 897.809L1542.2 894.891L1541.62 895.029L1541.14 895.381L1542.9 897.809ZM1321.93 895.694L1323.69 893.271L1323.14 892.864L1322.46 892.742L1321.93 895.694ZM1025.5 811.9L1026.46 809.055L1026.46 809.055L1025.5 811.9ZM462.257 813.358L461.004 810.632L461.004 810.632L462.257 813.358ZM397.719 840.547L395.321 838.746L389.386 846.647L398.712 843.378L397.719 840.547ZM493.677 688.088L491.117 686.524L491.104 686.546L491.09 686.569L493.677 688.088ZM493.678 688.088L496.237 689.652L496.275 689.59L496.311 689.526L493.678 688.088ZM493.678 688.087L491.091 686.568L491.067 686.608L491.045 686.649L493.678 688.087ZM504.19 670.193L506.777 671.714L508.663 668.506L505.128 667.343L504.19 670.193ZM514.042 506.663L514.55 509.62L517.34 509.141L517.023 506.327L514.042 506.663ZM637.339 452.061L634.591 453.265L636.845 458.411L639.868 453.675L637.339 452.061ZM840.499 150.632L839.638 147.758L838.645 148.055L838.048 148.902L840.499 150.632ZM1593.11 87.1924L1591.89 89.9344L1594.17 90.9467L1595.58 88.8885L1593.11 87.1924ZM1709.43 149.451C1709.63 147.361 1709.76 145.248 1709.84 143.114L1703.85 142.897C1703.77 144.914 1703.64 146.911 1703.45 148.885L1709.43 149.451ZM1747.41 200.5C1743.69 174.555 1728.29 153.168 1707.37 146.317L1705.51 152.019C1723.7 157.979 1737.98 177.028 1741.47 201.352L1747.41 200.5ZM1745.88 197.956C1745.4 197.938 1744.93 197.929 1744.46 197.926L1744.43 203.926C1744.84 203.928 1745.25 203.937 1745.66 203.952L1745.88 197.956ZM1799.31 269.938C1800.68 231.997 1777.4 199.098 1745.88 197.956L1745.66 203.952C1772.64 204.93 1794.62 233.705 1793.31 269.721L1799.31 269.938ZM1773.9 325.97C1788.6 313.718 1798.46 293.243 1799.31 269.938L1793.31 269.721C1792.52 291.537 1783.29 310.331 1770.05 321.361L1773.9 325.97ZM1784.42 376.969C1785.13 357.286 1781.57 338.66 1774.74 322.497L1769.21 324.833C1775.7 340.17 1779.11 357.922 1778.42 376.752L1784.42 376.969ZM1782.97 392.428C1783.74 387.39 1784.23 382.229 1784.42 376.969L1778.42 376.752C1778.24 381.782 1777.77 386.714 1777.04 391.525L1782.97 392.428ZM1824.48 486.492C1825.97 445.28 1808.71 408.549 1781.74 389.525L1778.28 394.428C1803.32 412.09 1819.92 446.73 1818.48 486.275L1824.48 486.492ZM1783.41 574.182C1807.05 555.628 1823.14 523.417 1824.48 486.492L1818.48 486.275C1817.2 521.67 1801.78 552.136 1779.71 569.462L1783.41 574.182ZM1815.29 657.271C1816.56 622.031 1804.13 590.112 1783.68 569.699L1779.44 573.946C1798.58 593.048 1810.52 623.285 1809.29 657.054L1815.29 657.271ZM1769.04 748.724C1795.5 730.982 1813.85 696.818 1815.29 657.271L1809.29 657.054C1807.92 694.985 1790.32 727.231 1765.7 743.74L1769.04 748.724ZM1764.38 746.411C1764.64 750.871 1764.7 755.406 1764.53 760L1770.53 760.217C1770.7 755.432 1770.64 750.704 1770.37 746.053L1764.38 746.411ZM1764.53 760C1762.31 821.418 1721.44 868.511 1674.61 866.813L1674.39 872.809C1725.79 874.672 1768.23 823.534 1770.53 760.217L1764.53 760ZM1674.61 866.813C1668.61 866.596 1662.78 865.597 1657.19 863.895L1655.44 869.635C1661.53 871.485 1667.86 872.573 1674.39 872.809L1674.61 866.813ZM1583.93 911.558C1614.03 912.649 1641.17 895.436 1658.83 868.406L1653.8 865.124C1637 890.846 1611.66 906.559 1584.14 905.562L1583.93 911.558ZM1545.44 899.321C1556.97 906.682 1570.01 911.054 1583.93 911.558L1584.14 905.562C1571.37 905.099 1559.37 901.093 1548.67 894.263L1545.44 899.321ZM1543.59 900.728C1544.99 900.394 1546.39 900.052 1547.79 899.701L1546.32 893.883C1544.95 894.227 1543.58 894.563 1542.2 894.891L1543.59 900.728ZM1427.05 932.89C1472.86 934.55 1514.77 921.927 1544.66 900.237L1541.14 895.381C1512.46 916.191 1471.9 928.512 1427.27 926.894L1427.05 932.89ZM1320.16 898.117C1347.86 918.337 1385.41 931.381 1427.05 932.89L1427.27 926.894C1386.71 925.424 1350.33 912.719 1323.69 893.271L1320.16 898.117ZM1024.55 814.744C1116.7 845.635 1220.75 880.519 1321.39 898.647L1322.46 892.742C1222.32 874.705 1118.69 839.973 1026.46 809.055L1024.55 814.744ZM797.1 754.456C823.625 755.418 857.113 762.633 895.764 773.581C934.38 784.52 977.931 799.118 1024.55 814.744L1026.46 809.055C979.876 793.441 936.18 778.793 897.399 767.809C858.654 756.834 824.593 749.449 797.317 748.46L797.1 754.456ZM463.509 816.084C499.018 799.766 536.116 782.723 587.456 770.562C638.8 758.401 704.503 751.1 797.1 754.456L797.317 748.46C704.296 745.089 638.041 752.415 586.073 764.724C534.102 777.034 496.533 794.304 461.004 810.632L463.509 816.084ZM398.712 843.378C421.517 835.384 442.258 825.85 463.509 816.084L461.004 810.632C439.719 820.414 419.226 829.83 396.727 837.716L398.712 843.378ZM491.09 686.569C452.493 752.296 424.67 799.667 395.321 838.746L400.118 842.349C429.716 802.939 457.725 755.235 496.264 689.607L491.09 686.569ZM491.118 686.523L491.117 686.524L496.237 689.653L496.237 689.652L491.118 686.523ZM491.045 686.649L491.045 686.65L496.311 689.526L496.311 689.525L491.045 686.649ZM501.604 668.672C498.01 674.785 494.509 680.748 491.091 686.568L496.265 689.606C499.683 683.786 503.184 677.824 506.777 671.714L501.604 668.672ZM452.943 586.881C451.472 627.479 472.624 662.969 503.253 673.043L505.128 667.343C477.729 658.332 457.536 625.833 458.939 587.098L452.943 586.881ZM513.535 503.707C480.209 509.427 454.479 544.521 452.943 586.881L458.939 587.098C460.406 546.629 484.862 514.716 514.55 509.62L513.535 503.707ZM510.458 490.901C510.259 496.385 510.471 501.767 511.061 506.999L517.023 506.327C516.467 501.39 516.266 496.306 516.454 491.118L510.458 490.901ZM582.545 406.957C543.844 405.554 512.163 443.855 510.458 490.901L516.454 491.118C518.089 445.993 548.176 411.715 582.328 412.953L582.545 406.957ZM640.087 450.858C629.05 425.665 607.865 407.875 582.545 406.957L582.328 412.953C604.745 413.765 624.211 429.57 634.591 453.265L640.087 450.858ZM838.048 148.902C753.583 268.561 687.695 367.577 634.81 450.448L639.868 453.675C692.702 370.885 758.537 271.946 842.95 152.362L838.048 148.902ZM1594.32 84.4503C1508.02 46.1444 1395.78 39.127 1267.09 53.0439C1138.34 66.9664 992.791 101.88 839.638 147.758L841.36 153.506C994.361 107.673 1139.51 72.8747 1267.73 59.0091C1396 45.1379 1507 52.2562 1591.89 89.9344L1594.32 84.4503ZM1644.98 55.2076C1623.25 54.4197 1603.66 66.4958 1590.63 85.4962L1595.58 88.8885C1607.73 71.1637 1625.54 60.507 1644.77 61.2036L1644.98 55.2076ZM1709.84 143.114C1711.53 96.6305 1683.14 56.5906 1644.98 55.2076L1644.77 61.2036C1678.36 62.4212 1705.46 98.3139 1703.85 142.897L1709.84 143.114Z" fill="black" mask="url(#path-1-inside-1_35_1304)"/>
<mask id="path-3-inside-2_35_1304" fill="white">
<path fill-rule="evenodd" clip-rule="evenodd" d="M1636.66 193.603C1636.59 195.454 1636.47 197.288 1636.3 199.101C1653.74 204.816 1666.98 222.854 1670.2 245.28C1670.59 245.282 1670.99 245.29 1671.39 245.304C1697.48 246.25 1717.67 273.763 1716.48 306.755C1715.75 326.883 1707.23 344.401 1694.77 354.787C1700.71 368.839 1703.82 385.068 1703.19 402.248C1703.03 406.838 1702.6 411.341 1701.93 415.735C1725.13 432.1 1740.24 463.939 1738.94 499.964C1737.77 532.226 1723.71 560.186 1703.32 576.193C1720.98 593.82 1731.85 621.548 1730.73 652.333C1729.48 686.896 1713.44 716.521 1690.66 731.801C1690.9 735.865 1690.95 739.997 1690.8 744.182C1688.78 799.826 1651.62 843.646 1607.8 842.058C1602.21 841.856 1596.78 840.925 1591.57 839.34C1576.2 862.873 1552.79 877.561 1527.09 876.629C1515.18 876.198 1504.01 872.461 1494.09 866.13C1492.86 866.44 1491.62 866.743 1490.38 867.038C1464.26 885.996 1427.47 897.124 1387.12 895.662C1350.45 894.333 1317.47 882.846 1293.23 865.151C1203.66 849.017 1111.02 817.962 1028.76 790.389C945.613 762.517 873.082 738.203 825.08 736.464C654.104 730.267 542.705 777.771 460.151 812.975C438.803 822.078 419.384 830.359 401.362 836.676C451.267 805.728 465.957 767.113 481.398 726.521C483.167 721.871 484.946 717.195 486.789 712.502C485.677 712.585 484.55 712.608 483.411 712.567C466.302 711.947 452.95 697.126 453.591 679.465C454.189 662.946 466.816 649.792 482.446 648.667C480.757 636.686 483.034 623.266 489.744 610.821C504.16 584.084 533.581 571.972 555.456 583.767C562.53 587.581 567.949 593.429 571.556 600.5C583.089 592.479 596.262 584.627 611.397 576.996C587.403 566.976 570.694 537.833 571.917 504.092C573.407 462.974 600.962 430.597 633.462 431.775C665.962 432.953 691.1 467.24 689.61 508.357C689.053 523.704 684.866 537.833 678.146 549.454C694.839 543.77 713.092 538.274 733.079 532.992C856.386 496.054 984.333 440.998 1105.17 389.002C1274.85 315.984 1430.51 249.003 1539.59 246.715C1527.31 232.759 1519.92 212.138 1520.75 189.402C1522.22 148.777 1549.36 116.784 1581.37 117.945C1613.37 119.105 1638.13 152.978 1636.66 193.603Z"/>
</mask>
<path fill-rule="evenodd" clip-rule="evenodd" d="M1636.66 193.603C1636.59 195.454 1636.47 197.288 1636.3 199.101C1653.74 204.816 1666.98 222.854 1670.2 245.28C1670.59 245.282 1670.99 245.29 1671.39 245.304C1697.48 246.25 1717.67 273.763 1716.48 306.755C1715.75 326.883 1707.23 344.401 1694.77 354.787C1700.71 368.839 1703.82 385.068 1703.19 402.248C1703.03 406.838 1702.6 411.341 1701.93 415.735C1725.13 432.1 1740.24 463.939 1738.94 499.964C1737.77 532.226 1723.71 560.186 1703.32 576.193C1720.98 593.82 1731.85 621.548 1730.73 652.333C1729.48 686.896 1713.44 716.521 1690.66 731.801C1690.9 735.865 1690.95 739.997 1690.8 744.182C1688.78 799.826 1651.62 843.646 1607.8 842.058C1602.21 841.856 1596.78 840.925 1591.57 839.34C1576.2 862.873 1552.79 877.561 1527.09 876.629C1515.18 876.198 1504.01 872.461 1494.09 866.13C1492.86 866.44 1491.62 866.743 1490.38 867.038C1464.26 885.996 1427.47 897.124 1387.12 895.662C1350.45 894.333 1317.47 882.846 1293.23 865.151C1203.66 849.017 1111.02 817.962 1028.76 790.389C945.613 762.517 873.082 738.203 825.08 736.464C654.104 730.267 542.705 777.771 460.151 812.975C438.803 822.078 419.384 830.359 401.362 836.676C451.267 805.728 465.957 767.113 481.398 726.521C483.167 721.871 484.946 717.195 486.789 712.502C485.677 712.585 484.55 712.608 483.411 712.567C466.302 711.947 452.95 697.126 453.591 679.465C454.189 662.946 466.816 649.792 482.446 648.667C480.757 636.686 483.034 623.266 489.744 610.821C504.16 584.084 533.581 571.972 555.456 583.767C562.53 587.581 567.949 593.429 571.556 600.5C583.089 592.479 596.262 584.627 611.397 576.996C587.403 566.976 570.694 537.833 571.917 504.092C573.407 462.974 600.962 430.597 633.462 431.775C665.962 432.953 691.1 467.24 689.61 508.357C689.053 523.704 684.866 537.833 678.146 549.454C694.839 543.77 713.092 538.274 733.079 532.992C856.386 496.054 984.333 440.998 1105.17 389.002C1274.85 315.984 1430.51 249.003 1539.59 246.715C1527.31 232.759 1519.92 212.138 1520.75 189.402C1522.22 148.777 1549.36 116.784 1581.37 117.945C1613.37 119.105 1638.13 152.978 1636.66 193.603Z" fill="#EBEBEB"/>
<path d="M1636.3 199.101L1633.31 198.818L1633.08 201.205L1635.36 201.952L1636.3 199.101ZM1670.2 245.28L1667.23 245.706L1667.6 248.266L1670.18 248.28L1670.2 245.28ZM1694.77 354.787L1692.85 352.483L1691.14 353.907L1692 355.955L1694.77 354.787ZM1701.93 415.735L1698.97 415.283L1698.69 417.117L1700.2 418.186L1701.93 415.735ZM1703.32 576.193L1701.46 573.833L1698.8 575.924L1701.2 578.316L1703.32 576.193ZM1690.66 731.801L1688.99 729.309L1687.56 730.266L1687.66 731.98L1690.66 731.801ZM1591.57 839.34L1592.45 836.47L1590.29 835.815L1589.06 837.699L1591.57 839.34ZM1494.09 866.13L1495.71 863.601L1494.62 862.905L1493.36 863.221L1494.09 866.13ZM1490.38 867.038L1489.69 864.119L1489.11 864.258L1488.62 864.61L1490.38 867.038ZM1293.23 865.151L1295 862.728L1294.44 862.321L1293.76 862.198L1293.23 865.151ZM1028.76 790.389L1027.81 793.234L1027.81 793.234L1028.76 790.389ZM460.151 812.975L458.974 810.215L458.974 810.215L460.151 812.975ZM401.362 836.676L399.781 834.127L402.354 839.507L401.362 836.676ZM481.398 726.521L484.202 727.588L484.202 727.588L481.398 726.521ZM486.789 712.502L489.581 713.598L491.327 709.152L486.564 709.51L486.789 712.502ZM482.446 648.667L482.662 651.659L485.865 651.428L485.417 648.248L482.446 648.667ZM489.744 610.821L487.103 609.397L487.103 609.397L489.744 610.821ZM555.456 583.767L554.032 586.408L554.032 586.408L555.456 583.767ZM571.556 600.5L568.884 601.863L570.446 604.926L573.269 602.963L571.556 600.5ZM611.397 576.996L612.748 579.675L618.568 576.74L612.553 574.228L611.397 576.996ZM678.146 549.454L675.549 547.952L671.55 554.869L679.113 552.294L678.146 549.454ZM733.079 532.992L733.846 535.892L733.893 535.88L733.94 535.866L733.079 532.992ZM1105.17 389.002L1103.98 386.246L1103.98 386.246L1105.17 389.002ZM1539.59 246.715L1539.65 249.714L1546.11 249.579L1541.84 244.733L1539.59 246.715ZM1639.28 199.384C1639.46 197.513 1639.58 195.621 1639.65 193.712L1633.66 193.494C1633.59 195.288 1633.48 197.063 1633.31 198.818L1639.28 199.384ZM1673.17 244.854C1669.84 221.618 1656.03 202.411 1637.23 196.25L1635.36 201.952C1651.45 207.221 1664.13 224.091 1667.23 245.706L1673.17 244.854ZM1671.49 242.306C1671.07 242.291 1670.64 242.282 1670.22 242.28L1670.18 248.28C1670.55 248.281 1670.91 248.289 1671.28 248.302L1671.49 242.306ZM1719.47 306.864C1720.7 272.909 1699.87 243.334 1671.49 242.306L1671.28 248.302C1695.1 249.166 1714.64 274.617 1713.48 306.646L1719.47 306.864ZM1696.69 357.092C1709.88 346.095 1718.72 327.736 1719.47 306.864L1713.48 306.646C1712.78 326.031 1704.57 342.708 1692.85 352.483L1696.69 357.092ZM1706.19 402.357C1706.83 384.749 1703.65 368.084 1697.53 353.619L1692 355.955C1697.77 369.594 1700.8 385.386 1700.2 402.139L1706.19 402.357ZM1704.9 416.186C1705.58 411.679 1706.02 407.061 1706.19 402.357L1700.2 402.139C1700.03 406.615 1699.62 411.003 1698.97 415.283L1704.9 416.186ZM1741.93 500.073C1743.27 463.214 1727.83 430.329 1703.66 413.283L1700.2 418.186C1722.44 433.871 1737.21 464.663 1735.94 499.855L1741.93 500.073ZM1705.17 578.553C1726.35 561.933 1740.74 533.1 1741.93 500.073L1735.94 499.855C1734.8 531.352 1721.08 558.44 1701.46 573.833L1705.17 578.553ZM1733.73 652.442C1734.88 620.921 1723.76 592.352 1705.44 574.069L1701.2 578.316C1718.21 595.288 1728.83 622.175 1727.74 652.224L1733.73 652.442ZM1692.33 734.292C1716.03 718.397 1732.45 687.812 1733.73 652.442L1727.74 652.224C1726.51 685.979 1710.85 714.645 1688.99 729.309L1692.33 734.292ZM1687.66 731.98C1687.9 735.949 1687.95 739.985 1687.8 744.073L1693.8 744.29C1693.95 740.01 1693.9 735.782 1693.65 731.621L1687.66 731.98ZM1687.8 744.073C1685.82 798.768 1649.45 840.566 1607.91 839.06L1607.69 845.056C1653.8 846.727 1691.75 800.884 1693.8 744.29L1687.8 744.073ZM1607.91 839.06C1602.58 838.867 1597.41 837.981 1592.45 836.47L1590.7 842.21C1596.16 843.869 1601.84 844.844 1607.69 845.056L1607.91 839.06ZM1526.98 879.627C1553.98 880.606 1578.29 865.168 1594.09 840.981L1589.06 837.699C1574.12 860.578 1551.6 874.516 1527.19 873.631L1526.98 879.627ZM1492.48 868.659C1502.81 875.255 1514.5 879.175 1526.98 879.627L1527.19 873.631C1515.86 873.221 1505.21 869.666 1495.71 863.601L1492.48 868.659ZM1491.08 869.956C1492.33 869.658 1493.58 869.353 1494.82 869.039L1493.36 863.221C1492.14 863.528 1490.92 863.827 1489.69 864.119L1491.08 869.956ZM1387.01 898.66C1427.95 900.143 1465.41 888.864 1492.15 869.466L1488.62 864.61C1463.1 883.128 1426.99 894.105 1387.23 892.664L1387.01 898.66ZM1291.46 867.574C1316.23 885.656 1349.81 897.311 1387.01 898.66L1387.23 892.664C1351.1 891.354 1318.71 880.037 1295 862.728L1291.46 867.574ZM1027.81 793.234C1110.02 820.793 1202.88 851.924 1292.7 868.103L1293.76 862.198C1204.45 846.11 1112.01 815.131 1029.72 787.545L1027.81 793.234ZM824.972 739.462C848.597 740.318 878.444 746.746 912.924 756.513C947.368 766.27 986.216 779.291 1027.81 793.234L1029.72 787.545C988.161 773.615 949.168 760.543 914.559 750.74C879.985 740.947 849.566 734.349 825.189 733.466L824.972 739.462ZM461.327 815.734C543.788 780.57 654.681 733.29 824.972 739.462L825.189 733.466C653.527 727.244 541.623 774.971 458.974 810.215L461.327 815.734ZM402.354 839.507C420.488 833.151 440.004 824.827 461.327 815.734L458.974 810.215C437.602 819.329 418.28 827.567 400.37 833.845L402.354 839.507ZM478.594 725.455C463.17 766.001 448.767 803.748 399.781 834.127L402.943 839.226C453.767 807.708 468.744 768.224 484.202 727.588L478.594 725.455ZM483.996 711.405C482.147 716.116 480.362 720.807 478.594 725.455L484.202 727.588C485.972 722.935 487.745 718.274 489.581 713.598L483.996 711.405ZM483.303 715.565C484.553 715.61 485.791 715.585 487.014 715.493L486.564 709.51C485.563 709.585 484.547 709.606 483.52 709.569L483.303 715.565ZM450.593 679.356C449.896 698.583 464.448 714.881 483.303 715.565L483.52 709.569C468.155 709.012 456.005 695.67 456.589 679.574L450.593 679.356ZM482.231 645.674C465.014 646.914 451.245 661.366 450.593 679.356L456.589 679.574C457.134 664.525 468.618 652.67 482.662 651.659L482.231 645.674ZM487.103 609.397C480.104 622.378 477.693 636.441 479.476 649.086L485.417 648.248C483.821 636.932 485.963 624.154 492.385 612.245L487.103 609.397ZM556.88 581.126C533.075 568.291 502.026 581.722 487.103 609.397L492.385 612.245C506.295 586.446 534.086 575.653 554.032 586.408L556.88 581.126ZM574.228 599.137C570.369 591.571 564.536 585.254 556.88 581.126L554.032 586.408C560.524 589.908 565.529 595.286 568.884 601.863L574.228 599.137ZM610.046 574.317C594.797 582.006 581.502 589.929 569.843 598.037L573.269 602.963C584.676 595.03 597.726 587.249 612.748 579.675L610.046 574.317ZM568.919 503.983C567.663 538.637 584.811 569.144 610.241 579.764L612.553 574.228C589.995 564.807 573.725 537.03 574.915 504.2L568.919 503.983ZM633.57 428.777C598.795 427.516 570.444 461.905 568.919 503.983L574.915 504.2C576.37 464.043 603.128 433.677 633.353 434.773L633.57 428.777ZM692.608 508.466C694.133 466.388 668.345 430.037 633.57 428.777L633.353 434.773C663.578 435.868 688.067 468.091 686.612 508.249L692.608 508.466ZM680.744 550.956C687.717 538.895 692.034 524.286 692.608 508.466L686.612 508.249C686.073 523.122 682.015 536.77 675.549 547.952L680.744 550.956ZM732.313 530.091C712.266 535.389 693.945 540.905 677.179 546.614L679.113 552.294C695.733 546.635 713.919 541.158 733.846 535.892L732.313 530.091ZM1103.98 386.246C983.113 438.257 855.329 493.239 732.218 530.118L733.94 535.866C857.443 498.869 985.552 443.739 1106.35 391.758L1103.98 386.246ZM1539.53 243.715C1484.49 244.87 1417.93 262.324 1344.1 288.507C1270.23 314.705 1188.8 349.748 1103.98 386.246L1106.35 391.758C1191.22 355.238 1272.46 320.282 1346.11 294.162C1419.8 268.028 1485.61 250.848 1539.65 249.714L1539.53 243.715ZM1517.75 189.293C1516.9 212.717 1524.5 234.108 1537.34 248.696L1541.84 244.733C1530.12 231.41 1522.94 211.559 1523.74 189.511L1517.75 189.293ZM1581.48 114.947C1547.19 113.704 1519.25 147.718 1517.75 189.293L1523.74 189.511C1525.18 149.836 1551.53 119.865 1581.26 120.943L1581.48 114.947ZM1639.65 193.712C1641.16 152.136 1615.77 116.189 1581.48 114.947L1581.26 120.943C1610.98 122.02 1635.1 153.82 1633.66 193.494L1639.65 193.712Z" fill="black" mask="url(#path-3-inside-2_35_1304)"/>
<path d="M1688.05 345.506C1688.06 345.259 1688.25 345.619 1688.3 345.724C1690.14 349.132 1691.67 352.838 1693.3 356.356" stroke="#020202" stroke-width="3" stroke-linecap="round"/>
<path d="M1701.04 413.908C1701.02 414.433 1701 414.678 1700.73 415.163C1699.11 418.086 1697.7 421.808 1695.04 423.933" stroke="#020202" stroke-width="3" stroke-linecap="round"/>
<path d="M1657.96 248.231C1658.48 248.25 1658.88 248.225 1659.38 248.123C1663.38 247.318 1667.43 246.873 1671.49 246.557" stroke="#020202" stroke-width="3" stroke-linecap="round"/>
<path d="M1637.11 199.854C1637.08 200.564 1636.49 199.939 1636.04 199.868C1631.71 199.193 1626.88 199.116 1622.66 200.292" stroke="#020202" stroke-width="3" stroke-linecap="round"/>
<path d="M1701.49 575.821C1701.43 577.646 1699.22 577.85 1697.77 578.262C1693.13 579.577 1688.83 579.909 1684.07 579.736" stroke="#020202" stroke-width="3" stroke-linecap="round"/>
<path d="M1689.49 731.351C1689.14 724.984 1687.38 719.073 1685.61 713.022" stroke="#020202" stroke-width="3" stroke-linecap="round"/>
<path d="M1592.06 838.214C1592.37 838.186 1592.12 837.931 1591.97 837.84C1589.06 836.029 1586.65 833.051 1584.18 830.7" stroke="#020202" stroke-width="3" stroke-linecap="round"/>
<path d="M1765.64 746.017C1766.43 745.201 1765.64 743.544 1765.44 742.695C1764.26 737.648 1762.28 733.071 1759.83 728.531" stroke="#020202" stroke-width="3" stroke-linecap="round"/>
<path d="M1656.32 864.755C1655.98 864.708 1655.61 864.376 1655.33 864.223C1650.76 861.774 1646.86 858.75 1643.09 855.224" stroke="#020202" stroke-width="3" stroke-linecap="round"/>
<path d="M1778.57 393.222C1778.9 393.537 1778.92 393.411 1778.67 393.094C1777.22 391.252 1774.93 390.344 1772.87 389.234C1766.85 385.984 1760.95 383.775 1754 383.906C1750.18 383.977 1746.24 384.314 1742.47 384.804" stroke="#020202" stroke-width="3" stroke-linecap="round"/>
<path d="M1780.92 570.041C1780.87 570.29 1780.69 570.521 1780.48 570.66C1778.75 571.779 1776.39 572.35 1774.45 572.927C1770.05 574.239 1765.35 575.314 1760.74 575.339" stroke="#020202" stroke-width="3" stroke-linecap="round"/>
<path d="M1746.73 202.673C1745.32 203.573 1742.4 203.299 1740.92 203.461C1735.55 204.049 1730.8 205.444 1725.71 207.125" stroke="#020202" stroke-width="3" stroke-linecap="round"/>
<path d="M1771.34 322.182C1771.02 322.21 1770.31 323.006 1769.98 323.22C1764.25 326.875 1756.93 327.698 1750.3 327.155" stroke="#020202" stroke-width="3" stroke-linecap="round"/>
<path d="M1705.14 149.025C1704.62 148.592 1704.39 150.17 1704.19 150.816C1703.34 153.546 1702.76 155.345 1701.72 158.156C1700.5 161.453 1698.92 164.166 1697.44 167.256" stroke="#020202" stroke-width="3" stroke-linecap="round"/>
<path d="M527.533 511.395C527.933 511.467 527.275 511.647 527.133 511.642C526.164 511.606 524.81 512.66 524.112 513.082C520.743 515.121 518.181 517.92 516.906 521.699C515.133 526.95 516.486 531.924 517.738 537.11" stroke="#020202" stroke-width="3" stroke-linecap="round"/>
<path d="M468.718 636.039C469.105 636.101 469.599 638.133 469.679 638.304C471.655 642.498 474.385 645.426 477.648 648.615" stroke="#020202" stroke-width="3" stroke-linecap="round"/>
<path d="M484.752 649.716C489.298 650.71 494.837 651.713 498.412 654.919" stroke="#020202" stroke-width="3" stroke-linecap="round"/>
<path d="M463.475 701.846C465.854 703.671 468.235 705.495 471.06 706.552" stroke="#020202" stroke-width="3" stroke-linecap="round"/>
<ellipse cx="1612.61" cy="1072.7" rx="4.5" ry="3" transform="rotate(2.07571 1612.61 1072.7)" fill="#18A8E4"/>
<ellipse cx="1729.17" cy="915.581" rx="4.5" ry="3" transform="rotate(2.07571 1729.17 915.581)" fill="#18A8E4"/>
<ellipse cx="1219.8" cy="1043.14" rx="4.5" ry="3" transform="rotate(2.07571 1219.8 1043.14)" fill="#18A8E4"/>
<ellipse cx="201.075" cy="470.161" rx="4.5" ry="3" transform="rotate(2.07571 201.075 470.161)" fill="#18A8E4"/>
<ellipse cx="1055.6" cy="1090.54" rx="4.5" ry="3" transform="rotate(2.07571 1055.6 1090.54)" fill="#18A8E4"/>
<ellipse cx="976.07" cy="965.577" rx="4.5" ry="3" transform="rotate(2.07571 976.07 965.577)" fill="#18A8E4"/>
<ellipse cx="506.698" cy="884.523" rx="4.5" ry="3" transform="rotate(2.07571 506.698 884.523)" fill="#18A8E4"/>
<ellipse cx="6.44503" cy="1020.49" rx="4.5" ry="3" transform="rotate(2.07571 6.44503 1020.49)" fill="#18A8E4"/>
<circle cx="1712.79" cy="986.775" r="5.5" transform="rotate(2.07571 1712.79 986.775)" fill="#ECEE5C"/>
<circle cx="1261.47" cy="1114.3" r="5.5" transform="rotate(2.07571 1261.47 1114.3)" fill="#ECEE5C"/>
<circle cx="748.978" cy="1043.14" r="5.5" transform="rotate(2.07571 748.978 1043.14)" fill="#ECEE5C"/>
<circle cx="1032.75" cy="1003.15" r="5.5" transform="rotate(2.07571 1032.75 1003.15)" fill="#ECEE5C"/>
</svg>
