<svg width="84" height="84" viewBox="0 0 84 84" fill="none" xmlns="http://www.w3.org/2000/svg">
<rect x="2.19603" y="2.05882" width="79.6078" height="79.6078" rx="39.8039" fill="#414344"/>
<rect x="2.19603" y="2.05882" width="79.6078" height="79.6078" rx="39.8039" stroke="black" stroke-width="4.11765"/>
<rect x="10.4314" y="10.2942" width="63.1373" height="63.1373" rx="31.5686" fill="#2BB8FF"/>
<rect x="10.4314" y="10.2942" width="63.1373" height="63.1373" rx="31.5686" stroke="black" stroke-width="4.11765"/>
<path fill-rule="evenodd" clip-rule="evenodd" d="M54.6565 28.9925C55.0278 28.8428 55.4342 28.7912 55.8333 28.843C56.2325 28.8948 56.6099 29.0481 56.9262 29.287C57.2425 29.5259 57.4861 29.8416 57.6318 30.2013C57.7775 30.561 57.8198 30.9515 57.7545 31.3322L54.347 51.1271C54.0165 53.0365 51.829 54.1315 50.0006 53.1804C48.4712 52.3847 46.1996 51.1588 44.1564 49.8796C43.1348 49.2393 40.0053 47.1888 40.3899 45.7298C40.7204 44.4823 45.9788 39.7943 48.9835 37.0072C50.1629 35.9122 49.6251 35.2805 48.2323 36.2877C44.7739 38.7885 39.221 42.5916 37.3851 43.6621C35.7656 44.606 34.9212 44.7672 33.9116 44.606C32.0697 44.3125 30.3615 43.8578 28.9673 43.3038C27.0833 42.5556 27.1749 40.0749 28.9658 39.3526L54.6565 28.9925Z" fill="white"/>
</svg>
