<svg width="1920" height="81" viewBox="0 0 1920 81" fill="none" xmlns="http://www.w3.org/2000/svg">
<path d="M1965.52 1.86776V102.5H-9.5V63.8475C-9.04656 63.8838 -8.49696 63.9264 -7.84838 63.9743C-5.62512 64.1386 -2.23859 64.3656 2.42566 64.6177C11.7541 65.1218 26.1939 65.7261 46.661 66.1289C87.5947 66.9344 152.64 66.934 249.125 63.7134C330.327 61.0029 386.925 54.1304 445.95 46.9632C459.06 45.3713 472.29 43.7648 485.936 42.1862C561.007 33.5016 648.782 25.6428 798.726 25.6428C941.647 25.6428 1027.67 34.2856 1117.76 43.3376C1122.17 43.7814 1126.6 44.2262 1131.05 44.6711C1226.16 54.1919 1329.02 63.7143 1509.96 63.7143C1599.34 63.7143 1713.71 48.142 1805.67 32.5861C1851.67 24.8061 1892.09 17.0263 1921 11.1913C1935.46 8.27382 1947.04 5.84242 1955.01 4.14019C1959 3.28907 1962.08 2.62024 1964.17 2.16407C1964.68 2.05241 1965.13 1.95349 1965.52 1.86776Z" fill="white" stroke="black" stroke-width="3"/>
</svg>
